# xmcd CD database file
#
# Track frame offsets:
#	150
#	16032
#	34633
#	50799
#	68873
#	81344
#	98090
#	114264
#	129158
#	147066
#	162621
#	177609
#	191363
#	203581
#	222539
#	239575
#	254904
#	276322
#	294271
#	310045
#
# Disc length: 4371 seconds
#
# Revision: 4
# Processed by: cddbd v1.5.1PL2 Copyright (c) Steve Scherf et al.
# Submitted via: CDex 1.51
#
DISCID=29111114
DTITLE=Smokie and Chris Norman - The Best Of 20 Years
DYEAR=1995
DGENRE=Oldies
TTITLE0=Living Next Door To Alice
TTITLE1=Lay Back In The Arms Of Someone
TTITLE2=It's Your Life
TTITLE3=Mexican Girl
TTITLE4=Needles And Pins
TTITLE5=Oh Carol
TTITLE6=For A Few Dollars More
TTITLE7=I'll Meet You At Midnight
TTITLE8=Wild Wild Angels
TTITLE9=If You Think You Know How To Love Me
TTITLE10=Don't Play Your Rock 'N' Roll To Me
TTITLE11=Something's Been Making Me Blue
TTITLE12=Roll On Baby
TTITLE13=Midnight Lady
TTITLE14=Some Hearts Are Diamonds
TTITLE15=Broken Heroes
TTITLE16=Sarah (You Take My Breath Away)
TTITLE17=Stumbli' In
TTITLE18=I Want To Be Needed
TTITLE19=Alice (Who The X Is Alice) (Living Next Door To Alice)
EXTD=YEAR: 1995
EXTT0=
EXTT1=
EXTT2=
EXTT3=
EXTT4=
EXTT5=
EXTT6=
EXTT7=
EXTT8=
EXTT9=
EXTT10=
EXTT11=
EXTT12=
EXTT13=
EXTT14=
EXTT15=
EXTT16=
EXTT17=
EXTT18=
EXTT19=
PLAYORDER=
